<?xml version="1.0" encoding="UTF-8" standalone="no"?>
<!-- Created with Inkscape (http://www.inkscape.org/) -->

<svg
   xmlns:dc="http://purl.org/dc/elements/1.1/"
   xmlns:cc="http://creativecommons.org/ns#"
   xmlns:rdf="http://www.w3.org/1999/02/22-rdf-syntax-ns#"
   xmlns:svg="http://www.w3.org/2000/svg"
   xmlns="http://www.w3.org/2000/svg"
   xmlns:sodipodi="http://sodipodi.sourceforge.net/DTD/sodipodi-0.dtd"
   xmlns:inkscape="http://www.inkscape.org/namespaces/inkscape"
   width="596.81866"
   height="403.87738"
   id="svg2"
   version="1.1"
   inkscape:version="0.48.5 r10040"
   sodipodi:docname="New document 1">
  <defs
     id="defs4">
    <clipPath
       clipPathUnits="userSpaceOnUse"
       id="clipPath3310">
      <path
         d="m 12.496,12.496 1207.559,0 0,1700.787 -1207.559,0 0,-1700.787 z"
         id="path3312"
         inkscape:connector-curvature="0" />
    </clipPath>
    <clipPath
       id="clipPath3087"
       clipPathUnits="userSpaceOnUse">
      <path
         inkscape:connector-curvature="0"
         id="path3089"
         d="m 0,0 1232.551,0 0,1725.78 L 0,1725.78 0,0 z" />
    </clipPath>
    <clipPath
       id="clipPath3055"
       clipPathUnits="userSpaceOnUse">
      <path
         inkscape:connector-curvature="0"
         id="path3057"
         d="m 12.496,12.496 1207.559,0 0,1700.787 -1207.559,0 0,-1700.787 z" />
    </clipPath>
    <clipPath
       id="clipPath3001"
       clipPathUnits="userSpaceOnUse">
      <path
         inkscape:connector-curvature="0"
         id="path3003"
         d="m 12.4961,1713.28 1207.5639,0 0,-1700.7839 -1207.5639,0 0,1700.7839 z" />
    </clipPath>
  </defs>
  <sodipodi:namedview
     id="base"
     pagecolor="#ffffff"
     bordercolor="#666666"
     borderopacity="1.0"
     inkscape:pageopacity="0.0"
     inkscape:pageshadow="2"
     inkscape:zoom="1"
     inkscape:cx="-99.721809"
     inkscape:cy="336.25961"
     inkscape:document-units="px"
     inkscape:current-layer="g3306"
     showgrid="false"
     fit-margin-top="0"
     fit-margin-left="0"
     fit-margin-right="0"
     fit-margin-bottom="0"
     inkscape:window-width="1920"
     inkscape:window-height="1017"
     inkscape:window-x="1912"
     inkscape:window-y="-8"
     inkscape:window-maximized="1" />
  <metadata
     id="metadata7">
    <rdf:RDF>
      <cc:Work
         rdf:about="">
        <dc:format>image/svg+xml</dc:format>
        <dc:type
           rdf:resource="http://purl.org/dc/dcmitype/StillImage" />
        <dc:title></dc:title>
      </cc:Work>
    </rdf:RDF>
  </metadata>
  <g
     inkscape:label="Layer 1"
     inkscape:groupmode="layer"
     id="layer1"
     transform="translate(-57,-83.647896)">
    <g
       id="g3306"
       transform="matrix(1.25,0,0,-1.25,-1492.9015,1154.2983)">
      <rect
         style="color:#000000;fill:#ffff00;fill-opacity:0.875;fill-rule:nonzero;stroke:#000000;stroke-width:6;stroke-miterlimit:4;stroke-opacity:1;stroke-dasharray:none;marker:none;visibility:visible;display:inline;overflow:visible;enable-background:accumulate"
         id="rect3031"
         width="577.86926"
         height="357.14285"
         x="60"
         y="86.647896"
         transform="matrix(0.8,0,0,-0.8,1194.3212,923.43864)" />
      <rect
         style="color:#000000;fill:#ffffff;fill-opacity:0.875;fill-rule:nonzero;stroke:#000000;stroke-width:4.20691109;stroke-miterlimit:4;stroke-opacity:1;stroke-dasharray:none;marker:none;visibility:visible;display:inline;overflow:visible;enable-background:accumulate"
         id="rect3031-4"
         width="418.61325"
         height="242.37219"
         x="1264.1622"
         y="-832.44928"
         transform="scale(1,-1)" />
      <g
         transform="translate(72.26989,895.71264)"
         id="g3318" />
      <g
         transform="translate(1435.2777,-2649.8414)"
         inkscape:label="Amido A2"
         id="g2993">
        <g
           id="g3009"
           transform="translate(39.950767,3410.3915)" />
        <g
           id="g3013"
           transform="translate(70.416271,3442.233)" />
        <g
           id="g3019"
           transform="translate(147.01297,3405.7955)" />
        <g
           id="g3023"
           transform="translate(200.49507,3404.9516)" />
        <g
           id="g3027"
           transform="translate(21.668967,3396.3611)" />
        <path
           d="m 230.78917,3456.9381 -13.418,0 0,-1.936 13.418,0 0,1.936 z m -7.677,-7.678 1.936,0 0,13.418 -1.936,0 0,-13.418 z m 13.524,6.95 0.967,0 c 0,7.525 -6.098,13.627 -13.625,13.628 -7.529,-10e-4 -13.627,-6.103 -13.628,-13.628 8e-4,-7.526 6.099,-13.628 13.628,-13.629 7.527,0 13.625,6.103 13.625,13.629 l -0.967,0 -0.968,0 c -8e-4,-3.231 -1.307,-6.149 -3.424,-8.268 -2.118,-2.118 -5.035,-3.425 -8.266,-3.425 -3.233,0 -6.15,1.307 -8.268,3.425 -2.118,2.119 -3.424,5.037 -3.424,8.268 0,3.231 1.306,6.148 3.424,8.267 2.118,2.118 5.035,3.425 8.268,3.425 3.231,0 6.148,-1.307 8.266,-3.425 2.117,-2.119 3.423,-5.036 3.424,-8.267 l 0.968,0 z m -214.967203,-59.849 -10.035,0 -0.065,-0.131 10.1,0 0,0.131 z m 178.826103,8.5905 c -7.527,0 -13.629,6.101 -13.629,13.631 0,7.527 6.102,13.627 13.629,13.627 7.529,0 13.63,-6.1 13.63,-13.627 0,-7.53 -6.101,-13.631 -13.63,-13.631 m 0,37.308 c -13.077,0 -23.677,-10.601 -23.677,-23.677 0,-13.078 10.6,-23.679 23.677,-23.679 13.079,0 23.678,10.601 23.678,23.679 0,13.076 -10.599,23.677 -23.678,23.677 m -53.4821,-36.4641 c 9.567,0 14.852,4.973 14.852,12.712 0,7.741 -5.285,12.777 -14.852,12.777 l -2.329,0 0,-25.489 2.329,0 z m -12.838,34.991 11.831,0 c 17.181,0 26.62,-8.936 26.62,-22.279 0,-8.243 -3.775,-14.788 -11.013,-18.941 -4.72,-2.707 -9.628,-3.336 -15.607,-3.336 l -11.831,0 0,44.556 z m -15.7338,0 10.635,0 0,-44.555 -10.635,0 0,44.555 z m -48.024899,1.4479 0.755,0 16.804,-29.012 15.857999,29.012 0.819,0 9.313,-46.003 -10.132,0 -3.776,20.327 -11.956999,-21.963 -0.692,0 -12.837,22.277 -3.903,-20.641 -9.503,0 9.251,46.003 z m -30.465504,-31.8415 -5.789,13.968 -5.915,-13.968 11.704,0 z m -5.664,31.777 0.693,0 22.215,-45.938 -11.139,0 -2.832,6.482 -18.062,0 -2.894,-6.482 -10.699,0 22.718,45.938 z m -23.2606,-67.3874 213.242003,0 0,10.846 -213.242003,0 0,-10.846 z"
           style="fill:#0d0b09;fill-opacity:1;fill-rule:nonzero;stroke:none"
           id="path3031"
           inkscape:connector-curvature="0" />
      </g>
      <path
         style="fill:#000000;stroke:#4d4d4d;stroke-width:8;stroke-linecap:butt;stroke-linejoin:miter;stroke-opacity:1"
         d="m 1280.3132,806.2434 144.8,0"
         id="path3901"
         inkscape:connector-curvature="0"
         sodipodi:nodetypes="cc" />
      <path
         style="fill:#000000;stroke:#4d4d4d;stroke-width:8;stroke-linecap:butt;stroke-linejoin:miter;stroke-opacity:1"
         d="m 1280.3132,777.57343 144.8,0"
         id="path3901-9"
         inkscape:connector-curvature="0"
         sodipodi:nodetypes="cc" />
      <path
         style="fill:#000000;stroke:#4d4d4d;stroke-width:8;stroke-linecap:butt;stroke-linejoin:miter;stroke-opacity:1"
         d="m 1280.3132,748.90345 144.8,0"
         id="path3901-4"
         inkscape:connector-curvature="0"
         sodipodi:nodetypes="cc" />
      <path
         style="fill:#000000;stroke:#4d4d4d;stroke-width:8;stroke-linecap:butt;stroke-linejoin:miter;stroke-opacity:1"
         d="m 1280.3132,720.23348 144.8,0"
         id="path3901-8"
         inkscape:connector-curvature="0"
         sodipodi:nodetypes="cc" />
      <path
         style="fill:#000000;stroke:#4d4d4d;stroke-width:8;stroke-linecap:butt;stroke-linejoin:miter;stroke-opacity:1"
         d="m 1280.3132,691.56351 380,0"
         id="path3901-82"
         inkscape:connector-curvature="0"
         sodipodi:nodetypes="cc" />
      <path
         style="fill:#000000;stroke:#4d4d4d;stroke-width:8;stroke-linecap:butt;stroke-linejoin:miter;stroke-opacity:1"
         d="m 1280.3132,662.89354 380,0"
         id="path3901-45"
         inkscape:connector-curvature="0"
         sodipodi:nodetypes="cc" />
      <path
         style="fill:#000000;stroke:#4d4d4d;stroke-width:8;stroke-linecap:butt;stroke-linejoin:miter;stroke-opacity:1"
         d="m 1488.3132,634.22355 172,0"
         id="path3901-5"
         inkscape:connector-curvature="0"
         sodipodi:nodetypes="cc" />
      <g
         id="g3864"
         transform="translate(1105.5109,-323.24881)">
        <path
           inkscape:connector-curvature="0"
           id="path3858"
           d="m 556.54616,995.79936 c -3.42304,0 -6.51,-2.534 -9.77496,-5.225 -2.26,-1.862 -4.59208,-3.8 -7.12504,-4.85 -2.65904,-1.102 -5.77296,-1.417 -8.77496,-1.725 -4.128,-0.424 -8.022,-0.825 -10.3,-3.1 -2.27704,-2.27696 -2.67704,-6.171 -3.1,-10.3 -0.312,-3.004 -0.62208,-6.115 -1.72504,-8.775 -1.04904,-2.531 -2.98896,-4.865 -4.84992,-7.125 -2.68992,-3.266 -5.22504,-6.353 -5.22504,-9.775 0,-3.423 2.53512,-6.509 5.22504,-9.775 1.864,-2.259 3.79984,-4.592 4.84992,-7.125 1.10208,-2.658 1.416,-5.773 1.72504,-8.775 0.424,-4.13 0.82312,-8.023 3.1,-10.3 2.278,-2.276 6.16912,-2.675 10.3,-3.1 3.002,-0.308 6.11592,-0.622 8.77496,-1.725 2.53296,-1.05 4.86816,-2.989 7.12504,-4.85 3.268,-2.692 6.34888,-5.225 9.77496,-5.225 3.42192,0 6.51104,2.534 9.77504,5.225 2.26096,1.862 4.59192,3.8 7.12496,4.85 2.65792,1.103 5.76904,1.417 8.77504,1.725 4.128,0.425 8.02296,0.824 10.3,3.1 2.278,2.277 2.69792,6.17 3.12496,10.3 0.30696,3.002 0.62304,6.117 1.72504,8.775 1.05,2.531 2.96512,4.866 4.82504,7.125 2.69096,3.267 5.24992,6.351 5.24992,9.775 0,3.424 -2.55896,6.509 -5.24992,9.775 -1.85992,2.26 -3.77504,4.595 -4.82504,7.125 -1.102,2.661 -1.41408,5.773 -1.72504,8.775 -0.42408,4.131 -0.82208,8.02304 -3.1,10.3 -2.27704,2.277 -6.19696,2.675 -10.32496,3.1 -3.002,0.308 -6.11712,0.622 -8.77504,1.725 -2.53304,1.05 -4.86696,2.988 -7.12496,4.85 -3.26704,2.691 -6.35304,5.225 -9.77504,5.225 z"
           style="color:#000000;fill:#ff0000;fill-opacity:1;fill-rule:nonzero;stroke:#000000;stroke-width:2.65619636;stroke-miterlimit:4;stroke-opacity:1;marker:none;visibility:visible;display:inline;overflow:visible;enable-background:accumulate" />
        <path
           inkscape:connector-curvature="0"
           id="path3854"
           d="m 556.28902,982.06006 c -20.544,0 -37.24992,-16.708 -37.24992,-37.25 0,-20.544 16.70592,-37.25 37.24992,-37.25 20.54696,0 37.27504,16.706 37.27504,37.25 0,20.542 -16.72808,37.25 -37.27504,37.25 z"
           style="color:#000000;fill:#ffffff;fill-opacity:1;fill-rule:nonzero;stroke:none;stroke-width:2.65619636;marker:none;visibility:visible;display:inline;overflow:visible;enable-background:accumulate" />
        <path
           inkscape:connector-curvature="0"
           id="path3852"
           d="m 593.50693,905.21722 c -3.044,-2.156 -7.106,-2.57 -11.05,-2.975 -2.88704,-0.297 -5.62008,-0.584 -7.82504,-1.5 -2.07008,-0.858 -4.10896,-2.542 -6.27496,-4.325 -1.88688,-1.554 -3.83,-3.126 -5.9,-4.275 l 14.82504,-30.725 11.17496,15.225 c 0.34096,0.466 0.92992,0.75 1.47496,0.7 l 17.6,-1.25 -14.02496,29.125 z"
           style="color:#000000;fill:#ff0000;fill-opacity:1;fill-rule:nonzero;stroke:#800000;stroke-width:2.65619636;stroke-miterlimit:4;stroke-opacity:1;marker:none;visibility:visible;display:inline;overflow:visible;enable-background:accumulate" />
        <path
           inkscape:connector-curvature="0"
           id="rect3051"
           d="m 519.57473,905.22792 -13.92496,-28.85 17.6,1.25 c 0.59712,0.05 1.134,-0.234 1.47504,-0.7 l 11.14992,-15.225 14.72504,30.5 c -2.244,1.162 -4.30408,2.835 -6.32504,4.5 -2.162,1.784 -4.20696,3.467 -6.27496,4.325 -2.20504,0.914 -4.93408,1.203 -7.82504,1.5 -3.75008,0.386 -7.61008,0.803 -10.6,2.7 z"
           style="color:#000000;fill:#ff0000;fill-opacity:1;fill-rule:nonzero;stroke:#800000;stroke-width:2.65619636;stroke-miterlimit:4;stroke-opacity:1;marker:none;visibility:visible;display:inline;overflow:visible;enable-background:accumulate" />
        <path
           inkscape:connector-curvature="0"
           id="path3324"
           d="m 556.32481,999.11722 c -4.62704,0 -8.32008,-3.052 -11.9,-6 -2.166,-1.784 -4.204,-3.467 -6.27504,-4.325 -2.20496,-0.915 -4.934,-1.203 -7.82496,-1.5 -4.53104,-0.466 -9.23,-0.954 -12.35008,-4.075 -3.12096,-3.12 -3.60896,-7.792 -4.07496,-12.325 -0.29896,-2.889 -0.55896,-5.62 -1.47496,-7.825 -0.85704,-2.067 -2.544,-4.137 -4.32504,-6.3 -2.95104,-3.58 -6,-7.272 -6,-11.9 0,-4.629 3.02504,-8.318 5.97496,-11.9 1.782,-2.163 3.46808,-4.229 4.32504,-6.3 0.91496,-2.205 1.20104,-4.936 1.5,-7.825 0.416,-4.08 0.862,-8.273 3.22504,-11.35 l -15.6,-32.35 c -0.25904,-0.54 -0.21008,-1.178 0.12496,-1.675 0.338,-0.497 0.90904,-0.782 1.5,-0.725 l 19.55,1.375 12.27496,-16.75 c 0.31904,-0.435 0.81808,-0.7 1.35008,-0.7 0.049,0 0.0979,0.02 0.14992,0.025 0.58704,0.054 1.11904,0.393 1.37504,0.925 l 16.05,33.325 c 0.784,-0.183 1.584,-0.325 2.42504,-0.325 1.01592,0 1.98592,0.189 2.92496,0.45 l 16.12496,-33.45 c 0.256,-0.532 0.76304,-0.871 1.35008,-0.925 0.053,-0.005 0.12696,-0.025 0.17496,-0.025 0.53296,0 1.03096,0.265 1.35,0.7 l 12.25,16.75 19.57496,-1.375 c 0.59104,-0.039 1.158,0.231 1.5,0.725 0.33504,0.496 0.38504,1.135 0.12504,1.675 l -15.82504,32.85 c 2.04704,3.024 2.474,6.983 2.87504,10.85 0.298,2.891 0.58504,5.62 1.5,7.825 0.856,2.069 2.54304,4.134 4.32496,6.3 2.94904,3.581 6,7.27 6,11.9 0,4.629 -3.05096,8.344 -6,11.925 -1.78192,2.164 -3.46592,4.208 -4.32496,6.275 -0.91496,2.205 -1.202,4.936 -1.5,7.825 -0.466,4.531 -0.93,9.204 -4.05,12.325 -3.124,3.122 -7.81496,3.609 -12.35,4.075 -2.88704,0.296 -5.62,0.561 -7.82496,1.475 -2.06608,0.858 -4.11304,2.567 -6.27504,4.35 -3.58296,2.95 -7.29496,6 -11.92496,6 z m 0,-3.375 c 3.422,0 6.50792,-2.534 9.77496,-5.225 2.258,-1.862 4.592,-3.8 7.12504,-4.85 2.65792,-1.103 5.77296,-1.417 8.77496,-1.725 4.128,-0.425 8.048,-0.823 10.32504,-3.1 2.27792,-2.27696 2.67592,-6.169 3.1,-10.3 0.31096,-3.002 0.62296,-6.114 1.72496,-8.775 1.05,-2.53 2.96504,-4.865 4.82496,-7.125 2.69104,-3.266 5.25008,-6.351 5.25008,-9.775 0,-3.424 -2.55904,-6.508 -5.25008,-9.775 -1.85992,-2.259 -3.77496,-4.594 -4.82496,-7.125 -1.102,-2.658 -1.418,-5.773 -1.72496,-8.775 -0.42704,-4.13 -0.84704,-8.023 -3.12504,-10.3 -2.27704,-2.276 -6.172,-2.675 -10.3,-3.1 -3.006,-0.308 -6.11704,-0.622 -8.77496,-1.725 -2.53304,-1.05 -4.86408,-2.988 -7.12504,-4.85 -3.264,-2.691 -6.35304,-5.225 -9.77496,-5.225 -3.42608,0 -6.50704,2.533 -9.77504,5.225 -2.25696,1.861 -4.592,3.8 -7.12496,4.85 -2.65904,1.103 -5.77304,1.417 -8.77504,1.725 -4.13096,0.425 -8.022,0.824 -10.3,3.1 -2.27696,2.277 -2.676,6.17 -3.1,10.3 -0.30904,3.002 -0.62296,6.117 -1.72496,8.775 -1.05008,2.533 -2.98608,4.866 -4.85008,7.125 -2.68992,3.266 -5.22496,6.352 -5.22496,9.775 0,3.422 2.53504,6.509 5.22496,9.775 1.86104,2.26 3.80104,4.594 4.85008,7.125 1.10296,2.66 1.41296,5.771 1.72496,8.775 0.42296,4.129 0.82296,8.02304 3.1,10.3 2.278,2.275 6.172,2.676 10.3,3.1 3.002,0.308 6.116,0.623 8.77504,1.725 2.53296,1.05 4.86496,2.988 7.12496,4.85 3.26496,2.691 6.352,5.225 9.77504,5.225 z m 0,-10.25 c -22.39904,0 -40.6,-18.229 -40.6,-40.625 0,-22.398 18.20096,-40.625 40.6,-40.625 22.39696,0 40.62496,18.227 40.62496,40.625 0,22.396 -18.228,40.625 -40.62496,40.625 z m 0,-3.375 c 20.54696,0 37.27496,-16.708 37.27496,-37.25 0,-20.544 -16.728,-37.25 -37.27496,-37.25 -20.544,0 -37.25008,16.706 -37.25008,37.25 0,20.542 16.70608,37.25 37.25008,37.25 z m 37.07496,-76.7 14.02504,-29.125 -17.6,1.25 c -0.54504,0.05 -1.13408,-0.234 -1.47504,-0.7 l -11.17504,-15.225 -14.82496,30.725 c 2.07,1.149 4.01304,2.721 5.9,4.275 2.166,1.783 4.20496,3.467 6.27504,4.325 2.20496,0.916 4.93792,1.203 7.82496,1.5 3.944,0.405 8.006,0.819 11.05,2.975 z m -73.67496,-0.275 c 2.98992,-1.897 6.84992,-2.314 10.6,-2.7 2.89096,-0.297 5.61992,-0.586 7.82496,-1.5 2.068,-0.858 4.11304,-2.541 6.27504,-4.325 2.02096,-1.665 4.08096,-3.338 6.32496,-4.5 l -14.72496,-30.5 -11.15008,15.225 c -0.34096,0.466 -0.87792,0.75 -1.47496,0.7 l -17.6,-1.25 13.92504,28.85 z"
           style="fill:#0d0b09;fill-opacity:1;fill-rule:nonzero;stroke:none" />
      </g>
      <text
         xml:space="preserve"
         style="font-size:22.00290298px;font-style:normal;font-variant:normal;font-weight:normal;font-stretch:normal;line-height:125%;letter-spacing:0px;word-spacing:0px;fill:#000000;fill-opacity:1;stroke:none;font-family:Segoe Script;-inkscape-font-specification:Segoe Script"
         x="1283.8016"
         y="-624.23773"
         id="text3963"
         sodipodi:linespacing="125%"
         transform="scale(1,-1)"><tspan
           sodipodi:role="line"
           id="tspan3965"
           x="1283.8016"
           y="-624.23773">Richard Slater</tspan></text>
    </g>
  </g>
</svg>
