<?xml version="1.0" encoding="UTF-8" standalone="no"?>
<!-- Generator: Adobe Illustrator 9.0, SVG Export Plug-In  -->

<svg
   xmlns:dc="http://purl.org/dc/elements/1.1/"
   xmlns:cc="http://creativecommons.org/ns#"
   xmlns:rdf="http://www.w3.org/1999/02/22-rdf-syntax-ns#"
   xmlns:svg="http://www.w3.org/2000/svg"
   xmlns="http://www.w3.org/2000/svg"
   xmlns:xlink="http://www.w3.org/1999/xlink"
   xmlns:sodipodi="http://sodipodi.sourceforge.net/DTD/sodipodi-0.dtd"
   xmlns:inkscape="http://www.inkscape.org/namespaces/inkscape"
   sodipodi:docname="icon.svg"
   inkscape:version="0.48.4 r9939"
   sodipodi:version="0.32"
   id="svg5105"
   xml:space="preserve"
   viewBox="0 0 126.31008 84.29528"
   height="84.29528"
   width="126.31008"
   version="1.1"><metadata
   id="metadata5189">
  <rdf:RDF>
    <cc:Work
   rdf:about="">
      <dc:format>image/svg+xml</dc:format>


      <dc:type
   rdf:resource="http://purl.org/dc/dcmitype/StillImage" />


    <dc:title></dc:title><dc:creator><cc:Agent><dc:title>Jakub Steiner</dc:title></cc:Agent></dc:creator><dc:subject><rdf:Bag><rdf:li>certificate</rdf:li></rdf:Bag></dc:subject><cc:license
   rdf:resource="http://creativecommons.org/licenses/by-sa/2.0/" /></cc:Work>


  <cc:License
   rdf:about="http://creativecommons.org/licenses/by-sa/2.0/"><cc:permits
     rdf:resource="http://web.resource.org/cc/Reproduction" /><cc:permits
     rdf:resource="http://web.resource.org/cc/Distribution" /><cc:requires
     rdf:resource="http://web.resource.org/cc/Notice" /><cc:requires
     rdf:resource="http://web.resource.org/cc/Attribution" /><cc:permits
     rdf:resource="http://web.resource.org/cc/DerivativeWorks" /><cc:requires
     rdf:resource="http://web.resource.org/cc/ShareAlike" /></cc:License></rdf:RDF>


</metadata>


<defs
   id="defs5187"><linearGradient
   id="linearGradient6684">
  <stop
   id="stop6686"
   offset="0.0000000"
   style="stop-color:#d5dbff;stop-opacity:1.0000000;" />
  <stop
   id="stop6688"
   offset="1"
   style="stop-color:#6579ff;stop-opacity:0;" />
</linearGradient>
<linearGradient
   id="linearGradient6665">
  <stop
   style="stop-color:#000000;stop-opacity:1.0000000;"
   offset="0.0000000"
   id="stop6667" />
  <stop
   style="stop-color:#000000;stop-opacity:0.0000000;"
   offset="1.0000000"
   id="stop6669" />
</linearGradient>
<linearGradient
   id="linearGradient6625">
  <stop
   id="stop6627"
   offset="0.0000000"
   style="stop-color:#1d2349;stop-opacity:1.0000000;" />
  <stop
   style="stop-color:#4c5279;stop-opacity:1.0000000;"
   offset="0.35315102"
   id="stop6637" />
  <stop
   style="stop-color:#b3bdff;stop-opacity:1.0000000;"
   offset="0.46551725"
   id="stop6633" />
  <stop
   id="stop6635"
   offset="0.64982164"
   style="stop-color:#727cbe;stop-opacity:1.0000000;" />
  <stop
   id="stop6629"
   offset="1.0000000"
   style="stop-color:#323c7e;stop-opacity:1.0000000;" />
</linearGradient>
<linearGradient
   id="linearGradient6617">
  <stop
   id="stop6619"
   offset="0.0000000"
   style="stop-color:#ffffff;stop-opacity:0.24742268;" />
  <stop
   id="stop6621"
   offset="1"
   style="stop-color:#ffffff;stop-opacity:0;" />
</linearGradient>
<linearGradient
   id="linearGradient6604">
  <stop
   id="stop6606"
   offset="0.0000000"
   style="stop-color:#ffa196;stop-opacity:1.0000000;" />
  <stop
   id="stop6608"
   offset="1"
   style="stop-color:#ff1f06;stop-opacity:0;" />
</linearGradient>
<radialGradient
   r="13.2807"
   fy="20.971201"
   fx="28.789101"
   cy="20.971201"
   cx="28.789101"
   gradientUnits="userSpaceOnUse"
   id="radialGradient5199"
   xlink:href="#aigrd1"
   inkscape:collect="always" />


<radialGradient
   r="14.6944"
   fy="13.5444"
   fx="19.292"
   cy="13.5444"
   cx="19.292"
   gradientUnits="userSpaceOnUse"
   id="radialGradient5201"
   xlink:href="#aigrd2"
   inkscape:collect="always" />


<linearGradient
   y2="16.723101"
   x2="23.412001"
   y1="11.5991"
   x1="18.229"
   gradientUnits="userSpaceOnUse"
   id="linearGradient5203"
   xlink:href="#aigrd3"
   inkscape:collect="always" />



		
	
			
			
			<radialGradient
   gradientUnits="userSpaceOnUse"
   fy="20.971201"
   fx="28.789101"
   r="13.2807"
   cy="20.971201"
   cx="28.789101"
   id="aigrd1">
				<stop
   id="stop5115"
   style="stop-color:#E41E08"
   offset="0" />



				<stop
   id="stop5117"
   style="stop-color:#901505"
   offset="1" />



			</radialGradient>



			
			<radialGradient
   gradientUnits="userSpaceOnUse"
   fy="13.5444"
   fx="19.292"
   r="14.6944"
   cy="13.5444"
   cx="19.292"
   id="aigrd2">
				<stop
   id="stop5122"
   style="stop-color:#E41E08"
   offset="0" />



				<stop
   id="stop5124"
   style="stop-color:#901505"
   offset="1" />



			</radialGradient>



			
			
			
			
			
			<linearGradient
   y2="16.723101"
   x2="23.412001"
   y1="11.5991"
   x1="18.229"
   gradientUnits="userSpaceOnUse"
   id="aigrd3">
				<stop
   id="stop5137"
   style="stop-color:#FFFFFF"
   offset="0" />



				<stop
   id="stop5139"
   style="stop-color:#901505"
   offset="1" />



			</linearGradient>



			
			
			
		<linearGradient
   gradientTransform="matrix(1.135551,0,0,1.135551,-3.259995,-3.266773)"
   y2="16.723101"
   x2="23.412001"
   y1="11.5991"
   x1="18.229"
   gradientUnits="userSpaceOnUse"
   id="linearGradient5274"
   xlink:href="#aigrd3"
   inkscape:collect="always" />


<radialGradient
   gradientTransform="matrix(1.135551,0,0,1.135551,-4.540325,-2.077433)"
   r="14.6944"
   fy="13.5444"
   fx="19.292"
   cy="13.5444"
   cx="19.292"
   gradientUnits="userSpaceOnUse"
   id="radialGradient5281"
   xlink:href="#aigrd2"
   inkscape:collect="always" />


<radialGradient
   gradientTransform="matrix(1.310386,0,0,1.310386,-1.9554978,10.869343)"
   r="13.2807"
   fy="20.971201"
   fx="28.789101"
   cy="20.971201"
   cx="28.789101"
   gradientUnits="userSpaceOnUse"
   id="radialGradient5284"
   xlink:href="#aigrd1"
   inkscape:collect="always" />



				
			<linearGradient
   gradientUnits="userSpaceOnUse"
   y2="49.895073"
   x2="43.14098"
   y1="5.9244628"
   x1="15.338736"
   gradientTransform="matrix(0.975728,0,0,0.931033,6.5551822,17.223712)"
   id="linearGradient6610"
   xlink:href="#linearGradient6604"
   inkscape:collect="always" />
<linearGradient
   gradientUnits="userSpaceOnUse"
   y2="22.783224"
   x2="29.957399"
   y1="9.4436626"
   x1="18.570419"
   gradientTransform="matrix(1.02867,0,0,0.972129,5.4068542,16.43466)"
   id="linearGradient6623"
   xlink:href="#linearGradient6617"
   inkscape:collect="always" />
<linearGradient
   gradientUnits="userSpaceOnUse"
   y2="35.01786"
   x2="38.250904"
   y1="22.886259"
   x1="38.506161"
   gradientTransform="matrix(0.843938,0,0,1.184922,5.4068542,16.93466)"
   id="linearGradient6631"
   xlink:href="#linearGradient6625"
   inkscape:collect="always" />
<radialGradient
   gradientUnits="userSpaceOnUse"
   r="33.156136"
   fy="19.818913"
   fx="24.452202"
   cy="19.818913"
   cx="24.452202"
   gradientTransform="matrix(1.024478,0,0,0.976107,7.6265232,14.714991)"
   id="radialGradient6663"
   xlink:href="#linearGradient6665"
   inkscape:collect="always" />
<radialGradient
   r="33.156136"
   fy="19.818913"
   fx="24.452202"
   cy="19.818913"
   cx="24.452202"
   gradientTransform="matrix(1.024478,0,0,0.976107,8.3336312,14.891768)"
   gradientUnits="userSpaceOnUse"
   id="radialGradient6675"
   xlink:href="#linearGradient6665"
   inkscape:collect="always" />
<radialGradient
   r="14.6944"
   fy="20.479359"
   fx="26.887432"
   cy="20.479359"
   cx="26.887432"
   gradientTransform="matrix(1.135551,0,0,1.135551,2.1468592,13.167887)"
   gradientUnits="userSpaceOnUse"
   id="radialGradient6678"
   xlink:href="#aigrd2"
   inkscape:collect="always" />
<linearGradient
   gradientUnits="userSpaceOnUse"
   y2="27.403761"
   x2="36.499001"
   y1="35.458244"
   x1="37.502811"
   gradientTransform="matrix(0.843938,0,0,1.184922,6.6871842,15.24532)"
   id="linearGradient6690"
   xlink:href="#linearGradient6684"
   inkscape:collect="always" />
</defs>


<sodipodi:namedview
   inkscape:current-layer="svg5105"
   inkscape:window-y="-8"
   inkscape:window-x="-8"
   inkscape:cy="7.5844533"
   inkscape:cx="68.978822"
   inkscape:zoom="5.6568542"
   id="base"
   pagecolor="#ffffff"
   bordercolor="#666666"
   borderopacity="0.16470588"
   inkscape:pageopacity="0.0"
   inkscape:pageshadow="2"
   inkscape:window-width="1920"
   inkscape:window-height="1017"
   inkscape:showpageshadow="false"
   showgrid="false"
   inkscape:window-maximized="1"
   fit-margin-top="0"
   fit-margin-left="0"
   fit-margin-right="0"
   fit-margin-bottom="0" />



	

<rect
   style="color:#000000;fill:#ffffff;fill-opacity:1;fill-rule:nonzero;stroke:#808080;stroke-width:0.90714335;marker:none;visibility:visible;display:inline;overflow:visible;enable-background:accumulate"
   id="rect3029"
   width="125.40294"
   height="83.388138"
   x="0.45357168"
   y="0.45357168" /><rect
   style="color:#000000;fill:#ffffff;fill-opacity:1;fill-rule:nonzero;stroke:#ffcc00;stroke-width:0.87978095;marker:none;visibility:visible;display:inline;overflow:visible;enable-background:accumulate"
   id="rect3029-1"
   width="122.38342"
   height="80.368629"
   x="1.8831466"
   y="1.8831486" /><path
   style="opacity:0.48044691;color:#000000;fill:url(#radialGradient6675);fill-opacity:1;fill-rule:nonzero;stroke:none;stroke-width:1;marker:none;visibility:visible;display:inline;overflow:visible"
   d="m 32.076294,34.550358 c 0,0 -5.904865,8.175967 -5.904865,11.923286 0,3.747318 6.813306,1.703326 9.538628,4.428649 2.725322,2.725322 -6.359086,9.765738 -6.359086,9.765738 l 9.084408,-2.498212 3.633764,3.860873 c 0,-4.655759 5.337089,-8.403077 2.611767,-11.241954 C 41.842032,47.94986 33.77962,48.290525 33.3254,44.543207 32.871179,40.795889 32.189849,34.663913 32.189849,34.663913 l -0.113555,-0.113555 z"
   id="path6671"
   inkscape:connector-curvature="0" />
<path
   style="opacity:0.48044691;fill:url(#radialGradient6663);fill-opacity:1;fill-rule:nonzero;stroke:none"
   d="m 43.603344,24.639972 c 1.321528,3.057376 3.643133,2.901818 3.700549,6.982515 0.03274,2.275762 1.832456,3.470743 1.832456,5.795517 0,2.324773 -4.015015,3.473472 -5.382529,4.840984 -1.367515,1.367516 0.107885,4.874427 -3.60203,5.904959 -3.674662,1.02074 -5.470058,-0.410252 -7.794832,-0.410252 -2.324776,0 -7.887818,4.482688 -9.939091,2.431415 -2.051272,-2.051271 -2.095036,-6.533959 -3.872804,-8.311727 -1.914521,-1.914521 -4.939435,-4.5894 -4.939435,-8.008186 0,-3.418785 1.974205,-5.223586 4.802684,-8.401985 2.918275,-3.279305 3.008531,-8.205088 6.427317,-8.205088 3.418785,0 4.729182,0.93781 7.638964,0.864272 4.638337,-0.117223 5.20674,-2.323322 8.618072,-0.5935 3.007702,1.52515 1.476157,4.717694 2.510679,7.111076 z"
   id="path6639"
   sodipodi:nodetypes="csssssssssssss"
   inkscape:connector-curvature="0" />
<path
   id="path5112"
   d="m 30.308524,33.312919 c 0,0 -5.904865,8.175967 -5.904865,11.923286 0,3.747318 6.813306,1.703326 9.538628,4.428649 2.725322,2.725322 -6.359086,9.765738 -6.359086,9.765738 l 9.084408,-2.498212 3.633764,3.860873 c 0,-4.655759 5.337089,-8.403077 2.611767,-11.241954 C 40.074262,46.712421 32.01185,47.053086 31.55763,43.305768 31.103409,39.55845 30.422079,33.426474 30.422079,33.426474 l -0.113555,-0.113555 z"
   style="fill:url(#linearGradient6631);fill-opacity:1;fill-rule:nonzero;stroke:#1f254f;stroke-width:1;stroke-miterlimit:6.5999999;stroke-opacity:1"
   inkscape:connector-curvature="0" />


<path
   sodipodi:nodetypes="cscccsss"
   style="fill:none;stroke:url(#linearGradient6690);stroke-width:0.72112519;stroke-miterlimit:6.5999999;stroke-opacity:1"
   d="m 27.490397,46.847741 c 4.552,0.448384 7.429014,1.235525 7.806622,3.989107 0.330114,2.407239 -4.232143,6.732959 -4.232143,6.732959 l 5.843888,-1.624746 2.84137,2.96095 c 0.662912,-3.71094 4.364808,-6.222004 2.678906,-8.504604 -2.114688,-2.863148 -8.966049,-2.243467 -9.293599,-4.945752 -0.32755,-2.702286 -8.334061,1.124615 -5.645044,1.392086 z"
   id="path6680"
   inkscape:connector-curvature="0" />
<path
   sodipodi:nodetypes="csssssssssssss"
   id="path5119"
   d="m 41.622669,24.492129 c 1.266321,2.929654 3.490941,2.780595 3.545959,6.690821 0.03138,2.180692 1.755905,3.325753 1.755905,5.553409 0,2.227656 -3.847288,3.328368 -5.157674,4.638753 -1.310387,1.310388 0.103378,4.670798 -3.451556,5.658279 -3.521153,0.978099 -5.241546,-0.393114 -7.469203,-0.393114 -2.227658,0 -7.558305,4.295424 -9.523886,2.329843 -1.96558,-1.965579 -2.007516,-6.261003 -3.711018,-7.964505 -1.834542,-1.834542 -4.733091,-4.397678 -4.733091,-7.673644 0,-3.275966 1.891733,-5.005371 4.602053,-8.050993 2.796364,-3.142311 2.88285,-7.862319 6.158816,-7.862319 3.275966,0 4.531621,0.898633 7.319847,0.828167 4.444571,-0.112327 4.989229,-2.226266 8.258052,-0.568707 2.882056,1.461436 1.414491,4.520612 2.405796,6.81401 z"
   style="fill:url(#radialGradient5284);fill-rule:nonzero;stroke:#4c0901;stroke-linecap:round;stroke-linejoin:round;stroke-miterlimit:4;stroke-opacity:1"
   inkscape:connector-curvature="0" />


<path
   id="path5126"
   d="m 41.664034,32.812919 c 0,6.245531 -5.10998,11.35551 -11.35551,11.35551 -6.245531,0 -11.35551,-5.109979 -11.35551,-11.35551 0,-6.24553 5.109979,-11.35551 11.35551,-11.35551 6.24553,0 11.35551,5.10998 11.35551,11.35551 z"
   style="fill:url(#radialGradient6678);fill-rule:nonzero;stroke:none"
   inkscape:connector-curvature="0" />

















	
<path
   style="fill:none;stroke:url(#linearGradient6610);stroke-linecap:round;stroke-linejoin:round;stroke-miterlimit:4;stroke-opacity:1"
   d="m 40.576155,25.275444 c 1.153261,2.668087 3.179261,2.532336 3.229367,6.093447 0.02857,1.985994 1.599132,3.028821 1.599132,5.057586 0,2.028765 -3.503791,3.031202 -4.697182,4.224592 -1.193393,1.193394 0.09415,4.253777 -3.143392,5.153093 -3.206775,0.890771 -4.773567,-0.358015 -6.802333,-0.358015 -2.028766,0 -6.883479,3.911917 -8.673568,2.121828 -1.790087,-1.790087 -1.828279,-5.702004 -3.379688,-7.253413 -1.670749,-1.670749 -4.310508,-4.005041 -4.310508,-6.98852 0,-2.983479 1.722835,-4.558479 4.191169,-7.332179 2.546698,-2.861757 2.625462,-7.16035 5.608941,-7.16035 2.983479,0 4.127026,0.8184 6.666312,0.754226 4.047747,-0.102298 4.543777,-2.027499 7.52075,-0.517931 2.624739,1.330955 1.288202,4.116999 2.191,6.205636 z"
   id="path6600"
   sodipodi:nodetypes="csssssssssssss"
   inkscape:connector-curvature="0" />
<path
   id="path6612"
   d="m 30.350434,22.297779 c -5.867816,0 -10.646262,4.742233 -10.646262,10.610051 0,3.670993 1.983705,6.780628 4.816166,8.690826 7.240471,-3.896962 5.953804,-10.805188 15.607276,-12.746547 -1.599006,-3.849102 -5.351588,-6.55433 -9.77718,-6.55433 z"
   style="color:#000000;fill:url(#linearGradient6623);fill-opacity:1;fill-rule:nonzero;stroke:none;stroke-width:1;marker:none;visibility:visible;display:inline;overflow:visible"
   inkscape:connector-curvature="0" />
<text
   xml:space="preserve"
   style="font-size:23.83270836px;font-style:normal;font-variant:normal;font-weight:normal;font-stretch:normal;line-height:125%;letter-spacing:0px;word-spacing:0px;fill:#000000;fill-opacity:1;stroke:none;font-family:Geometr415 Blk BT;-inkscape-font-specification:Geometr415 Blk BT"
   x="52.330116"
   y="35.468239"
   id="text3049"
   sodipodi:linespacing="125%"><tspan
     sodipodi:role="line"
     id="tspan3051"
     x="52.330116"
     y="35.468239">CERT</tspan></text>
<text
   xml:space="preserve"
   style="font-size:23.83270836px;font-style:normal;font-variant:normal;font-weight:normal;font-stretch:normal;line-height:125%;letter-spacing:0px;word-spacing:0px;fill:#000000;fill-opacity:1;stroke:none;font-family:Geometr415 Blk BT;-inkscape-font-specification:Geometr415 Blk BT"
   x="51.282784"
   y="60.34771"
   id="text3049-7"
   sodipodi:linespacing="125%"><tspan
     sodipodi:role="line"
     id="tspan3051-4"
     x="51.282784"
     y="60.34771">REPO</tspan></text>
</svg>